<svg width="44" height="44" viewBox="0 0 44 44" fill="none" xmlns="http://www.w3.org/2000/svg">
<path d="M29.5709 20.075C27.0873 20.075 26.7436 22.55 26.7436 22.55H32.0201C32.0201 22.55 32.0545 20.075 29.5709 20.075ZM17.5998 22.55H12.9248V26.8468H17.3678C18.0381 26.8296 19.2928 26.6406 19.2928 24.7585C19.2928 22.5242 17.5998 22.55 17.5998 22.55Z" fill="#1A1A1A"/>
<path d="M22 2C10.9554 2 2 10.9554 2 22C2 33.0446 10.9554 42 22 42C33.0446 42 42 33.0446 42 22C42 10.9554 33.0446 2 22 2ZM26.2143 14.2857H33.0982V16.3393H26.2143V14.2857ZM22.7321 25.0714C22.7321 30.1607 17.4286 30 17.4286 30H8.75V13.3036H17.4286C20.0714 13.3036 22.1518 14.7589 22.1518 17.75C22.1518 20.7411 19.6071 20.9286 19.6071 20.9286C22.9643 20.9286 22.7321 25.0714 22.7321 25.0714ZM35.6071 24.7946H26.9554C26.9554 27.8929 29.8929 27.6964 29.8929 27.6964C32.6696 27.6964 32.5714 25.9018 32.5714 25.9018H35.5089C35.5089 30.6696 29.7946 30.3393 29.7946 30.3393C22.9464 30.3393 23.3839 23.9554 23.3839 23.9554C23.3839 23.9554 23.375 17.5446 29.7946 17.5446C36.5536 17.5536 35.6071 24.7946 35.6071 24.7946Z" fill="#1A1A1A"/>
<path d="M18.7342 18.1586C18.7342 16.4915 17.5998 16.4915 17.5998 16.4915H12.9248V20.075H17.3076C18.0639 20.075 18.7342 19.8258 18.7342 18.1586Z" fill="#1A1A1A"/>
</svg>
