<?xml version="1.0" encoding="UTF-8"?>
<svg id="Layer_1" data-name="Layer 1" xmlns="http://www.w3.org/2000/svg" viewBox="0 0 321.91 360.51">
  <defs>
    <style>
      .cls-1 {
        fill: #1a1a1a;
        stroke-width: 0px;
      }
    </style>
  </defs>
  <path class="cls-1" d="M232.1,174.17c0,11.88-.14,23.78.1,35.66.07,3.57-1,5.55-4.15,7.34-40.28,23.1-80.47,46.34-120.7,69.55-4.59,2.65-9.22,5.24-13.76,7.96-2.38,1.42-3.8,2.06-3.77-1.84.11-17.92.13-35.85-.04-53.77-.03-3.14,1.9-3.99,3.94-5.16,27.41-15.79,54.76-31.64,82.24-47.31,2.76-1.58,3.89-3.22,3.7-6.36-.34-5.82.33-11.85-.98-17.18-3.55-3.44-9.3-5.88-14.2-8.71C110.97,123.48,57.46,92.57,3.9,61.76,1.22,60.21.04,58.59.06,55.35.24,38.16.27,20.97.06,3.78.02-.82,1.32-.45,4.56,1.43c56.49,32.66,113.04,65.25,169.57,97.85,17.9,10.32,35.72,20.76,53.72,30.91,3.39,1.91,4.39,4.09,4.32,7.79-.22,12.07-.08,24.14-.08,36.21h0v-.02Z"/>
  <path class="cls-1" d="M269.45,89.77c-5.92,3.39-10.82,6.18-15.7,8.97-1.54.88-2.8,2.08-4.92.84-16.55-9.7-33.16-19.26-50.51-29.3,8.43-4.93,16.24-9.55,24.1-14.08,31.19-18.01,62.39-35.99,93.6-53.99,5.85-3.38,5.89-3.37,5.89,3.47-.03,116.33-.09,232.65,0,348.98,0,4.51-1.05,5.88-5.71,5.77-13.91-.33-27.82-.31-41.72,0-4.24.1-5.13-1.2-5.12-5.19.14-39.87.09-79.74.09-119.61V89.77h0Z"/>
  <path class="cls-1" d="M123.81,173.71c-17.58,10.14-34.18,19.72-50.78,29.3-5.54,3.19-11.01,6.53-16.65,9.54-2.95,1.57-3.9,3.54-3.89,6.89.11,44.79-.02,89.59.18,134.37.02,5.12-.98,6.88-6.49,6.69-13.34-.46-26.71-.37-40.06-.02-4.76.12-6.14-1.02-6.12-5.95.22-38.03.11-76.05.11-114.09.02-43.51.02-87.02.05-130.53,0-2.14-.47-4.37.83-7.01,40.68,23.45,81.27,46.85,122.83,70.81h-.01Z"/>
</svg>