<svg width="120" height="120" viewBox="0 0 120 120" fill="none" xmlns="http://www.w3.org/2000/svg">
<g clip-path="url(#clip0_160_2042)">
<path d="M59.4916 0.0336914C29.1024 0.0336914 30.9999 13.2643 30.9999 13.2643L31.0336 26.9716H60.0334V31.0869H19.5153C19.5153 31.0869 0.0693359 28.8727 0.0693359 59.6563C0.0693359 90.4407 17.0423 89.349 17.0423 89.349H27.1717V75.0638C27.1717 75.0638 26.6256 58.0238 43.8737 58.0238H72.6363C72.6363 58.0238 88.796 58.2859 88.796 42.3443V15.9857C88.796 15.9857 91.2504 0.0336914 59.4916 0.0336914ZM43.5011 9.25157C44.1864 9.25095 44.865 9.38601 45.4983 9.649C46.1315 9.912 46.7069 10.2978 47.1915 10.7843C47.676 11.2707 48.0603 11.8484 48.3222 12.4841C48.5842 13.1199 48.7187 13.8012 48.7181 14.4892C48.7187 15.1772 48.5842 15.8586 48.3222 16.4943C48.0603 17.1301 47.676 17.7077 47.1915 18.1942C46.7069 18.6807 46.1315 19.0664 45.4983 19.3294C44.865 19.5924 44.1864 19.7275 43.5011 19.7269C42.8158 19.7275 42.1371 19.5924 41.5039 19.3294C40.8706 19.0664 40.2953 18.6807 39.8107 18.1942C39.3261 17.7077 38.9419 17.1301 38.6799 16.4943C38.4179 15.8586 38.2834 15.1772 38.284 14.4892C38.2834 13.8012 38.4179 13.1199 38.6799 12.4841C38.9419 11.8484 39.3261 11.2707 39.8107 10.7843C40.2953 10.2978 40.8706 9.912 41.5039 9.649C42.1371 9.38601 42.8158 9.25095 43.5011 9.25157Z" fill="url(#paint0_linear_160_2042)"/>
<path d="M60.3548 119.589C90.7439 119.589 88.8465 106.358 88.8465 106.358L88.8127 92.6512H59.8124V88.5359H100.331C100.331 88.5359 119.777 90.75 119.777 59.9656C119.777 29.1816 102.804 30.2733 102.804 30.2733H92.6742V44.558C92.6742 44.558 93.2203 61.598 75.9721 61.598H47.2095C47.2095 61.598 31.0498 61.3359 31.0498 77.278V103.637C31.0498 103.637 28.596 119.589 60.3543 119.589M76.3448 110.372C75.6595 110.372 74.9808 110.237 74.3476 109.974C73.7143 109.711 73.139 109.325 72.6544 108.839C72.1698 108.353 71.7856 107.775 71.5236 107.139C71.2617 106.503 71.1271 105.822 71.1278 105.134C71.1271 104.446 71.2616 103.765 71.5235 103.129C71.7854 102.493 72.1697 101.915 72.6542 101.429C73.1388 100.942 73.7142 100.556 74.3475 100.293C74.9808 100.03 75.6595 99.8953 76.3448 99.8959C77.0301 99.8953 77.7088 100.03 78.342 100.293C78.9752 100.556 79.5506 100.942 80.0352 101.429C80.5197 101.915 80.904 102.493 81.166 103.128C81.4279 103.764 81.5624 104.446 81.5618 105.134C81.5624 105.822 81.4279 106.503 81.166 107.139C80.904 107.774 80.5197 108.352 80.0352 108.839C79.5506 109.325 78.9752 109.711 78.342 109.974C77.7088 110.237 77.0301 110.372 76.3448 110.372Z" fill="url(#paint1_linear_160_2042)"/>
</g>
<defs>
<linearGradient id="paint0_linear_160_2042" x1="1150.45" y1="1075.36" x2="7105.91" y2="6948.21" gradientUnits="userSpaceOnUse">
<stop stop-color="#387EB8"/>
<stop offset="1" stop-color="#366994"/>
</linearGradient>
<linearGradient id="paint1_linear_160_2042" x1="1729.01" y1="1868.39" x2="8123.33" y2="7889.36" gradientUnits="userSpaceOnUse">
<stop stop-color="#FFE052"/>
<stop offset="1" stop-color="#FFC331"/>
</linearGradient>
<clipPath id="clip0_160_2042">
<rect width="120" height="120" fill="white"/>
</clipPath>
</defs>
</svg>
